<?xml version="1.0" encoding="UTF-8" standalone="no" ?>
<!DOCTYPE svg PUBLIC "-//W3C//DTD SVG 1.1//EN" "http://www.w3.org/Graphics/SVG/1.1/DTD/svg11.dtd">
<svg xmlns="http://www.w3.org/2000/svg" xmlns:xlink="http://www.w3.org/1999/xlink" version="1.1" width="1080" height="1080" viewBox="0 0 1080 1080" xml:space="preserve">
<desc>Created with Fabric.js 5.2.4</desc>
<defs>
</defs>
<g transform="matrix(1 0 0 1 540 540)" id="d7fc78c8-0ac0-4ea0-8938-8e92bf2cd55f"  >
<rect style="stroke: none; stroke-width: 1; stroke-dasharray: none; stroke-linecap: butt; stroke-dashoffset: 0; stroke-linejoin: miter; stroke-miterlimit: 4; fill: rgb(255,255,255); fill-rule: nonzero; opacity: 1; visibility: hidden;" vector-effect="non-scaling-stroke"  x="-540" y="-540" rx="0" ry="0" width="1080" height="1080" />
</g>
<g transform="matrix(1 0 0 1 540 540)" id="358cbb5a-471f-4390-9b07-1235ca87ec9a"  >
</g>
<g transform="matrix(1 0 0 1 540 540)" id="XMLID_222_"  >
<path style="stroke: rgb(0,0,0); stroke-width: 0; stroke-dasharray: none; stroke-linecap: butt; stroke-dashoffset: 0; stroke-linejoin: miter; stroke-miterlimit: 4; fill: rgb(168,255,204); fill-rule: nonzero; opacity: 1;" vector-effect="non-scaling-stroke"  transform=" translate(-165, -165)" d="M 250.606 154.389 L 100.606 4.393000000000001 C 94.749 -1.464999999999999 85.25099999999999 -1.464999999999999 79.393 4.394000000000001 C 73.536 10.252 73.536 19.749000000000002 79.394 25.607000000000003 L 218.787 164.99699999999999 L 79.393 304.394 C 73.536 310.252 73.536 319.749 79.394 325.607 C 82.322 328.536 86.161 330 90 330 C 93.839 330 97.678 328.536 100.607 325.606 L 250.606 175.602 C 253.42 172.78900000000002 255 168.974 255 164.996 C 255 161.018 253.42 157.202 250.606 154.389 z" stroke-linecap="round" />
</g>
<g transform="matrix(NaN NaN NaN NaN 0 0)"  >
<g style=""   >
</g>
</g>
<g transform="matrix(NaN NaN NaN NaN 0 0)"  >
<g style=""   >
</g>
</g>
</svg>